<svg width="1077" height="81" viewBox="0 0 1077 81" fill="none" xmlns="http://www.w3.org/2000/svg">
<g filter="url(#filter0_d_237_2662)">
<path d="M18.488 71.136L19.0734 69.2236L18.488 71.136ZM10.712 65.952L9.15026 67.2014L9.158 67.2111L9.16585 67.2206L10.712 65.952ZM6.104 55.008L4.14386 55.4053L4.14644 55.418L4.14917 55.4307L6.104 55.008ZM6.2 18.816L8.15238 19.2499L8.15363 19.2442L6.2 18.816ZM10.808 7.872L9.24998 6.61798L9.24058 6.62965L9.23137 6.64145L10.808 7.872ZM18.776 2.4L19.3856 4.30485L19.4027 4.29935L19.4198 4.29354L18.776 2.4ZM36.728 1.152L36.5186 3.14101L36.728 1.152ZM43.928 2.112L43.6079 4.08621L43.634 4.09044L43.6602 4.09398L43.928 2.112ZM50.36 3.36H52.36V1.82344L50.8753 1.42753L50.36 3.36ZM50.36 9.024L50.0124 10.9936L52.36 11.4078V9.024H50.36ZM45.752 8.44799L45.9447 6.45729H45.9446L45.752 8.44799ZM38.936 7.96799L38.7826 9.9621L38.8093 9.96416L38.8361 9.9655L38.936 7.96799ZM22.52 8.83199L21.9177 6.92483H21.9177L22.52 8.83199ZM16.568 13.152L14.9505 11.9756L14.944 11.9847L16.568 13.152ZM13.304 21.888L11.3379 21.5214L13.304 21.888ZM13.208 51.552L11.2343 51.8755L11.2374 51.8941L11.2408 51.9127L13.208 51.552ZM22.232 64.608L22.849 62.7056L22.232 64.608ZM42.872 65.376L43.0381 67.3691L42.872 65.376ZM50.36 64.512H52.36V62.1511L50.0312 62.5392L50.36 64.512ZM50.36 70.272L50.8145 72.2197L52.36 71.8591V70.272H50.36ZM43.928 71.52L44.2031 73.501L44.2257 73.4979L44.2481 73.4942L43.928 71.52ZM36.728 72.288L36.5746 70.2939L36.5706 70.2942L36.728 72.288ZM29.528 70.576C25.4484 70.576 21.9742 70.1116 19.0734 69.2236L17.9026 73.0484C21.2738 74.0804 25.1596 74.576 29.528 74.576V70.576ZM19.0734 69.2236C16.3078 68.377 14.0521 66.8698 12.2581 64.6834L9.16585 67.2206C11.4679 70.0262 14.3963 71.975 17.9026 73.0484L19.0734 69.2236ZM12.2737 64.7026C10.489 62.4716 9.04623 59.1521 8.05883 54.5853L4.14917 55.4307C5.20977 60.3359 6.83903 64.3123 9.15026 67.2014L12.2737 64.7026ZM8.06414 54.6107C7.14125 50.0578 6.664 44.0294 6.664 36.48H2.664C2.664 44.1626 3.14675 50.4862 4.14386 55.4053L8.06414 54.6107ZM6.664 36.48C6.664 29.3911 7.17183 23.6623 8.15237 19.2499L4.24763 18.3821C3.18018 23.1857 2.664 29.2329 2.664 36.48H6.664ZM8.15363 19.2442C9.13954 14.746 10.5831 11.4108 12.3846 9.10254L9.23137 6.64145C6.9369 9.58124 5.30846 13.542 4.24638 18.3878L8.15363 19.2442ZM12.366 9.12601C14.2331 6.80633 16.5596 5.20914 19.3856 4.30485L18.1665 0.49515C14.5924 1.63885 11.6069 3.68966 9.24998 6.61798L12.366 9.12601ZM19.4198 4.29354C22.3626 3.29298 25.9113 2.768 30.104 2.768V-1.232C25.5927 -1.232 21.5894 -0.668987 18.1322 0.506453L19.4198 4.29354ZM30.104 2.768C32.0042 2.768 34.1409 2.89072 36.5186 3.14101L36.9374 -0.837015C34.4511 -1.09873 32.1718 -1.232 30.104 -1.232V2.768ZM36.5186 3.14101C38.9143 3.39318 41.2773 3.70829 43.6079 4.08621L44.2481 0.137785C41.8427 -0.252293 39.4057 -0.577188 36.9374 -0.837015L36.5186 3.14101ZM43.6602 4.09398C45.9608 4.40488 48.0204 4.80598 49.8447 5.29247L50.8753 1.42753C48.8596 0.890009 46.6312 0.459112 44.1958 0.130011L43.6602 4.09398ZM48.36 3.36V9.024H52.36V3.36H48.36ZM50.7076 7.05443C49.543 6.84891 47.9465 6.65102 45.9447 6.45729L45.5594 10.4387C47.5255 10.629 49.001 10.8151 50.0124 10.9936L50.7076 7.05443ZM45.9446 6.45729C43.9225 6.26161 41.6186 6.09963 39.0359 5.97049L38.8361 9.9655C41.3734 10.0924 43.6135 10.2504 45.5594 10.4387L45.9446 6.45729ZM39.0894 5.97389C36.54 5.77778 33.9287 5.68 31.256 5.68V9.68C33.8313 9.68 36.34 9.77422 38.7826 9.9621L39.0894 5.97389ZM31.256 5.68C27.7227 5.68 24.5968 6.07883 21.9177 6.92483L23.1223 10.7392C25.3072 10.0492 28.0053 9.68 31.256 9.68V5.68ZM21.9177 6.92483C19.0675 7.8249 16.7316 9.52666 14.9505 11.9757L18.1855 14.3283C19.4764 12.5533 21.1085 11.3751 23.1223 10.7392L21.9177 6.92483ZM14.944 11.9847C13.2345 14.3631 12.0702 17.5935 11.3379 21.5214L15.2701 22.2546C15.9458 18.6305 16.9575 16.0369 18.192 14.3193L14.944 11.9847ZM11.3379 21.5214C10.6024 25.4661 10.248 30.4977 10.248 36.576H14.248C14.248 30.6223 14.5976 25.8619 15.2701 22.2546L11.3379 21.5214ZM10.248 36.576C10.248 42.7134 10.5701 47.8239 11.2343 51.8755L15.1817 51.2284C14.5659 47.4721 14.248 42.5986 14.248 36.576H10.248ZM11.2408 51.9127C11.9718 55.9 13.1347 59.1675 14.848 61.5513L18.096 59.2167C16.8654 57.5045 15.8522 54.884 15.1752 51.1913L11.2408 51.9127ZM14.848 61.5513C16.5652 63.9405 18.8359 65.6091 21.615 66.5104L22.849 62.7056C20.8921 62.0709 19.3228 60.9235 18.096 59.2167L14.848 61.5513ZM21.615 66.5104C24.2459 67.3637 27.4139 67.76 31.064 67.76V63.76C27.6741 63.76 24.9541 63.3883 22.849 62.7056L21.615 66.5104ZM31.064 67.76C35.8926 67.76 39.8894 67.6315 43.0381 67.3691L42.7059 63.3829C39.7106 63.6325 35.8354 63.76 31.064 63.76V67.76ZM43.0381 67.3691C46.1371 67.1108 48.6932 66.8174 50.6888 66.4848L50.0312 62.5392C48.1868 62.8466 45.7509 63.1292 42.7059 63.3829L43.0381 67.3691ZM48.36 64.512V70.272H52.36V64.512H48.36ZM49.9055 68.3243C48.0383 68.76 45.94 69.1676 43.6079 69.5458L44.2481 73.4942C46.652 73.1044 48.8417 72.68 50.8145 72.2197L49.9055 68.3243ZM43.6529 69.539C41.3922 69.853 39.0329 70.1048 36.5746 70.2939L36.8814 74.2821C39.4151 74.0872 41.8558 73.827 44.2031 73.501L43.6529 69.539ZM36.5706 70.2942C34.1894 70.4822 31.8419 70.576 29.528 70.576V74.576C31.9501 74.576 34.4026 74.4778 36.8854 74.2818L36.5706 70.2942ZM119.892 71.328L119.381 73.2617L119.402 73.2673L119.424 73.2724L119.892 71.328ZM111.348 66.336L109.877 67.6909L109.886 67.7013L109.896 67.7115L111.348 66.336ZM106.26 55.584L104.311 56.0318L104.313 56.0443L104.316 56.0567L106.26 55.584ZM106.356 18.336L108.299 18.8087L108.301 18.8027L106.356 18.336ZM111.54 7.392L113.009 8.74855L113.018 8.7393L113.026 8.72993L111.54 7.392ZM120.084 2.20799L120.595 4.14167L120.612 4.13719L120.628 4.13241L120.084 2.20799ZM143.892 2.20799L143.347 4.13241L143.368 4.13843L143.39 4.14399L143.892 2.20799ZM152.436 7.392L150.931 8.70901L150.948 8.72902L150.966 8.74856L152.436 7.392ZM157.524 18.336L155.573 18.7781L155.575 18.7838L157.524 18.336ZM157.428 55.584L155.484 55.1113L155.481 55.1237L155.479 55.1362L157.428 55.584ZM152.34 66.336L150.888 64.9605L150.878 64.9707L150.869 64.981L152.34 66.336ZM143.892 71.328L144.368 73.2704L144.385 73.2662L144.403 73.2617L143.892 71.328ZM147.06 60.672L145.484 59.4407L145.478 59.4477L147.06 60.672ZM150.516 51.936L148.55 51.5694L150.516 51.936ZM150.42 21.408L148.451 21.7629L148.454 21.7785L148.457 21.794L150.42 21.408ZM146.964 12.576L145.382 13.8003L145.394 13.816L145.407 13.8315L146.964 12.576ZM140.916 8.64L140.407 10.5742L140.419 10.5773L140.916 8.64ZM123.156 8.64L122.659 6.70263L122.647 6.70585L123.156 8.64ZM117.012 12.576L115.479 11.2908L115.467 11.3055L115.455 11.3205L117.012 12.576ZM113.364 21.408L111.408 20.9911L111.404 21.0065L111.401 21.022L113.364 21.408ZM113.172 51.936L111.2 52.2702L111.203 52.2864L111.206 52.3026L113.172 51.936ZM116.532 60.672L114.932 61.872L114.941 61.8842L114.95 61.8963L116.532 60.672ZM122.58 64.704L122.037 66.6289L122.049 66.6324L122.58 64.704ZM131.892 70.576C127.464 70.576 123.627 70.1701 120.36 69.3836L119.424 73.2724C123.068 74.1499 127.231 74.576 131.892 74.576V70.576ZM120.403 69.3943C117.352 68.5886 114.836 67.1095 112.8 64.9605L109.896 67.7115C112.468 70.4265 115.647 72.2754 119.381 73.2617L120.403 69.3943ZM112.819 64.981C110.892 62.889 109.31 59.663 108.203 55.1113L104.316 56.0567C105.513 60.977 107.324 64.919 109.877 67.6909L112.819 64.981ZM108.209 55.1362C107.168 50.6063 106.628 44.5654 106.628 36.96H102.628C102.628 44.7146 103.175 51.0897 104.311 56.0318L108.209 55.1362ZM106.628 36.96C106.628 29.3593 107.2 23.3279 108.299 18.8087L104.412 17.8633C103.208 22.8161 102.628 29.2007 102.628 36.96H106.628ZM108.301 18.8027C109.407 14.1943 111.019 10.905 113.009 8.74855L110.07 6.03544C107.453 8.87096 105.609 12.8777 104.411 17.8693L108.301 18.8027ZM113.026 8.72993C115.065 6.4649 117.571 4.94024 120.595 4.14167L119.573 0.274319C115.812 1.26775 112.623 3.19909 110.053 6.05407L113.026 8.72993ZM120.628 4.13241C123.803 3.23397 127.549 2.768 131.892 2.768V-1.232C127.275 -1.232 123.149 -0.737978 119.539 0.283583L120.628 4.13241ZM131.892 2.768C136.369 2.768 140.177 3.2352 143.347 4.13241L144.436 0.283583C140.823 -0.73921 136.631 -1.232 131.892 -1.232V2.768ZM143.39 4.14399C146.477 4.94442 148.969 6.46691 150.931 8.70901L153.941 6.07499C151.423 3.19708 148.218 1.26357 144.394 0.272001L143.39 4.14399ZM150.966 8.74856C152.949 10.8969 154.53 14.1759 155.573 18.7781L159.474 17.8939C158.341 12.8961 156.53 8.87907 153.905 6.03544L150.966 8.74856ZM155.575 18.7838C156.615 23.3137 157.156 29.3546 157.156 36.96H161.156C161.156 29.2054 160.608 22.8303 159.473 17.8882L155.575 18.7838ZM157.156 36.96C157.156 44.5607 156.584 50.5921 155.484 55.1113L159.371 56.0567C160.576 51.1039 161.156 44.7193 161.156 36.96H157.156ZM155.479 55.1362C154.437 59.6714 152.86 62.8791 150.888 64.9605L153.792 67.7115C156.428 64.9289 158.243 60.9686 159.377 56.0318L155.479 55.1362ZM150.869 64.981C148.903 67.1151 146.428 68.5895 143.381 69.3943L144.403 73.2617C148.14 72.2745 151.296 70.4209 153.811 67.6909L150.869 64.981ZM143.415 69.3856C140.22 70.1694 136.387 70.576 131.892 70.576V74.576C136.613 74.576 140.78 74.1506 144.368 73.2704L143.415 69.3856ZM131.892 67.76C135.595 67.76 138.829 67.3976 141.555 66.6289L140.469 62.7791C138.202 63.4184 135.357 63.76 131.892 63.76V67.76ZM141.555 66.6289C144.448 65.8128 146.834 64.231 148.641 61.8963L145.478 59.4477C144.214 61.081 142.567 62.1872 140.469 62.7791L141.555 66.6289ZM148.636 61.9033C150.505 59.5106 151.745 56.2548 152.482 52.3026L148.55 51.5694C147.878 55.1692 146.814 57.7374 145.484 59.4407L148.636 61.9033ZM152.482 52.3026C153.218 48.3551 153.572 43.2258 153.572 36.96H149.572C149.572 43.1102 149.222 47.9649 148.55 51.5694L152.482 52.3026ZM153.572 36.96C153.572 30.4359 153.186 25.1068 152.382 21.022L148.457 21.794C149.19 25.5172 149.572 30.5561 149.572 36.96H153.572ZM152.388 21.0531C151.655 16.9859 150.417 13.6715 148.521 11.3205L145.407 13.8315C146.711 15.4485 147.777 18.0221 148.451 21.7629L152.388 21.0531ZM148.545 11.3517C146.729 9.0059 144.327 7.44991 141.412 6.70267L140.419 10.5773C142.497 11.1101 144.126 12.1781 145.382 13.8003L148.545 11.3517ZM141.425 6.70585C138.773 6.00797 135.581 5.68 131.892 5.68V9.68C135.37 9.68 138.195 9.99202 140.407 10.5741L141.425 6.70585ZM131.892 5.68C128.442 5.68 125.356 6.01102 122.659 6.70267L123.652 10.5773C125.947 9.98898 128.685 9.68 131.892 9.68V5.68ZM122.647 6.70585C119.802 7.4544 117.401 8.99987 115.479 11.2908L118.544 13.8612C119.951 12.1841 121.645 11.1056 123.665 10.5741L122.647 6.70585ZM115.455 11.3205C113.577 13.6487 112.272 16.9367 111.408 20.9911L115.32 21.8249C116.12 18.0713 117.246 15.4713 118.569 13.8315L115.455 11.3205ZM111.401 21.022C110.598 25.1068 110.212 30.4359 110.212 36.96H114.212C114.212 30.5561 114.594 25.5172 115.326 21.794L111.401 21.022ZM110.212 36.96C110.212 43.2203 110.533 48.3374 111.2 52.2702L115.144 51.6018C114.53 47.9826 114.212 43.1157 114.212 36.96H110.212ZM111.206 52.3026C111.94 56.2425 113.142 59.4859 114.932 61.872L118.132 59.472C116.849 57.7621 115.811 55.1815 115.138 51.5694L111.206 52.3026ZM114.95 61.8963C116.758 64.231 119.143 65.8128 122.037 66.6289L123.123 62.7791C121.024 62.1872 119.378 61.081 118.113 59.4477L114.95 61.8963ZM122.049 66.6324C124.833 67.3979 128.126 67.76 131.892 67.76V63.76C128.361 63.76 125.446 63.4181 123.11 62.7756L122.049 66.6324ZM213.493 72L211.506 71.7732L211.252 74H213.493V72ZM221.557 1.34399V-0.656006H219.773L219.57 1.1172L221.557 1.34399ZM229.333 1.34399L231.245 0.754978L230.81 -0.656006H229.333V1.34399ZM248.149 62.4L246.238 62.989L248.169 69.255L250.064 62.978L248.149 62.4ZM266.581 1.34399V-0.656006H265.096L264.667 0.765985L266.581 1.34399ZM274.453 1.34399L276.44 1.11188L276.233 -0.656006H274.453V1.34399ZM282.709 72V74H284.957L284.696 71.7679L282.709 72ZM275.317 72L273.33 72.228L273.534 74H275.317V72ZM268.213 10.08L268.517 8.10325L265.928 7.70483L266.226 10.308L268.213 10.08ZM269.461 10.272L271.382 10.8278L272.015 8.64135L269.765 8.29526L269.461 10.272ZM251.605 72V74H253.109L253.526 72.5558L251.605 72ZM244.597 72L242.68 72.5703L243.106 74H244.597V72ZM226.261 10.368L225.997 8.38554L223.677 8.69489L224.344 10.9383L226.261 10.368ZM227.701 10.176L229.689 10.3952L229.969 7.8559L227.437 8.19354L227.701 10.176ZM220.885 72V74H222.677L222.873 72.2192L220.885 72ZM215.48 72.2268L223.544 1.57078L219.57 1.1172L211.506 71.7732L215.48 72.2268ZM221.557 3.34399H229.333V-0.656006H221.557V3.34399ZM227.422 1.93301L246.238 62.989L250.061 61.811L231.245 0.754978L227.422 1.93301ZM250.064 62.978L268.496 1.922L264.667 0.765985L246.235 61.822L250.064 62.978ZM266.581 3.34399H274.453V-0.656006H266.581V3.34399ZM272.467 1.57611L280.723 72.2321L284.696 71.7679L276.44 1.11188L272.467 1.57611ZM282.709 70H275.317V74H282.709V70ZM277.304 71.772L270.2 9.85204L266.226 10.308L273.33 72.228L277.304 71.772ZM267.909 12.0567L269.157 12.2487L269.765 8.29526L268.517 8.10325L267.909 12.0567ZM267.54 9.71625L249.684 71.4442L253.526 72.5558L271.382 10.8278L267.54 9.71625ZM251.605 70H244.597V74H251.605V70ZM246.514 71.4297L228.178 9.79769L224.344 10.9383L242.68 72.5703L246.514 71.4297ZM226.526 12.3505L227.966 12.1585L227.437 8.19354L225.997 8.38554L226.526 12.3505ZM225.713 9.95683L218.897 71.7808L222.873 72.2192L229.689 10.3952L225.713 9.95683ZM220.885 70H213.493V74H220.885V70ZM340.689 72H338.689V74H340.689V72ZM340.689 1.34399V-0.656006H338.689V1.34399H340.689ZM348.369 1.34399H350.369V-0.656006H348.369V1.34399ZM348.369 72V74H350.369V72H348.369ZM342.689 72V1.34399H338.689V72H342.689ZM340.689 3.34399H348.369V-0.656006H340.689V3.34399ZM346.369 1.34399V72H350.369V1.34399H346.369ZM348.369 70H340.689V74H348.369V70ZM409.653 72H407.653V74H409.653V72ZM409.653 1.34399V-0.656006H407.653V1.34399H409.653ZM415.893 1.34399L417.577 0.26461L416.987 -0.656006H415.893V1.34399ZM452.757 58.848L451.074 59.9274L454.757 65.6736V58.848H452.757ZM452.757 1.34399V-0.656006H450.757V1.34399H452.757ZM460.341 1.34399H462.341V-0.656006H460.341V1.34399ZM460.341 72V74H462.341V72H460.341ZM454.101 72L452.418 73.0794L453.008 74H454.101V72ZM417.237 14.496L418.921 13.4166L415.237 7.67039V14.496H417.237ZM417.237 72V74H419.237V72H417.237ZM411.653 72V1.34399H407.653V72H411.653ZM409.653 3.34399H415.893V-0.656006H409.653V3.34399ZM414.21 2.42338L451.074 59.9274L454.441 57.7686L417.577 0.26461L414.21 2.42338ZM454.757 58.848V1.34399H450.757V58.848H454.757ZM452.757 3.34399H460.341V-0.656006H452.757V3.34399ZM458.341 1.34399V72H462.341V1.34399H458.341ZM460.341 70H454.101V74H460.341V70ZM455.785 70.9206L418.921 13.4166L415.554 15.5754L452.418 73.0794L455.785 70.9206ZM415.237 14.496V72H419.237V14.496H415.237ZM417.237 70H409.653V74H417.237V70ZM539.889 72.48L539.917 74.4798L539.92 74.4798L539.889 72.48ZM528.753 70.464L527.858 72.2529L527.874 72.2607L527.89 72.2683L528.753 70.464ZM521.841 63.84L523.582 62.8559L521.841 63.84ZM518.289 52.608L516.312 52.9142L518.289 52.608ZM518.289 20.832L516.318 20.4941L516.315 20.5078L516.313 20.5215L518.289 20.832ZM522.129 9.696L523.837 10.7359L523.842 10.7278L523.847 10.7196L522.129 9.696ZM529.425 2.976L528.575 1.16552L528.568 1.16891L528.56 1.17236L529.425 2.976ZM548.913 1.056L548.77 3.05091L548.913 1.056ZM556.785 1.92L556.488 3.89787L556.785 1.92ZM563.889 3.264H565.889V1.67997L564.347 1.31716L563.889 3.264ZM563.889 9.024L563.592 11.0019L565.889 11.3464V9.024H563.889ZM558.513 8.44799L558.292 10.4358L558.319 10.4388L558.347 10.4411L558.513 8.44799ZM550.737 7.872L550.646 9.86993L550.648 9.87002L550.737 7.872ZM531.537 10.56L532.73 12.1649L532.737 12.16L531.537 10.56ZM526.257 19.776L524.311 19.3114L524.309 19.3221L524.306 19.3328L526.257 19.776ZM525.585 50.592L523.603 50.8653L523.606 50.882L523.608 50.8987L525.585 50.592ZM528.369 59.424L530.093 58.41L528.369 59.424ZM533.553 64.128L532.745 65.9578L532.777 65.972L532.81 65.985L533.553 64.128ZM551.313 64.32L551.779 66.2648L551.313 64.32ZM559.473 61.824L560.216 63.681L561.473 63.1781V61.824H559.473ZM559.473 40.992H561.473V38.992H559.473V40.992ZM542.385 40.992H540.385V42.992H542.385V40.992ZM542.385 35.328L542.073 33.3525L540.385 33.619V35.328H542.385ZM552.273 34.56L552.339 36.5589L552.37 36.5579L552.401 36.5559L552.273 34.56ZM562.929 34.464L562.842 36.4621L562.885 36.464H562.929V34.464ZM566.769 34.752H568.769V33.074L567.116 32.7824L566.769 34.752ZM566.769 72V74H568.769V72H566.769ZM561.201 72L559.252 72.4497L559.61 74H561.201V72ZM560.049 67.008L561.997 66.5583L561.426 64.0831L559.154 65.2191L560.049 67.008ZM551.217 70.56L550.574 68.666L550.564 68.6696L551.217 70.56ZM539.86 70.4802C535.58 70.5414 532.198 69.8946 529.616 68.6597L527.89 72.2683C531.196 73.8494 535.238 74.5466 539.917 74.4798L539.86 70.4802ZM529.647 68.6751C527.069 67.3863 525.056 65.4634 523.582 62.8559L520.1 64.8241C521.954 68.1046 524.548 70.5977 527.858 72.2529L529.647 68.6751ZM523.582 62.8559C522.071 60.1824 520.945 56.6876 520.265 52.3018L516.312 52.9142C517.041 57.6164 518.283 61.6096 520.1 64.8241L523.582 62.8559ZM520.265 52.3018C519.581 47.8872 519.233 42.6184 519.233 36.48H515.233C515.233 42.7576 515.588 48.2408 516.312 52.9142L520.265 52.3018ZM519.233 36.48C519.233 30.6018 519.581 25.4938 520.264 21.1425L516.313 20.5215C515.589 25.1302 515.233 30.4542 515.233 36.48H519.233ZM520.26 21.1699C520.998 16.8634 522.211 13.4079 523.837 10.7359L520.42 8.6561C518.463 11.8721 517.115 15.8406 516.318 20.4941L520.26 21.1699ZM523.847 10.7196C525.443 8.04005 527.583 6.07644 530.289 4.77963L528.56 1.17236C525.123 2.81955 522.398 5.33595 520.411 8.67239L523.847 10.7196ZM530.275 4.78647C533.069 3.47485 536.661 2.768 541.137 2.768V-1.232C536.268 -1.232 532.053 -0.466856 528.575 1.16552L530.275 4.78647ZM541.137 2.768C543.582 2.768 546.126 2.86204 548.77 3.05091L549.055 -0.938919C546.323 -1.13404 543.684 -1.232 541.137 -1.232V2.768ZM548.77 3.05091C551.409 3.23938 553.981 3.52185 556.488 3.89787L557.081 -0.0578747C554.468 -0.449856 551.793 -0.743387 549.055 -0.938919L548.77 3.05091ZM556.488 3.89787C559.002 4.27497 561.316 4.71316 563.431 5.21083L564.347 1.31716C562.11 0.790836 559.687 0.333019 557.081 -0.0578747L556.488 3.89787ZM561.889 3.264V9.024H565.889V3.264H561.889ZM564.185 7.04613C562.841 6.84447 560.998 6.6482 558.679 6.4549L558.347 10.4411C560.635 10.6318 562.376 10.8195 563.592 11.0019L564.185 7.04613ZM558.734 6.46023C556.377 6.19835 553.74 6.00348 550.826 5.87397L550.648 9.87002C553.494 9.99651 556.041 10.1856 558.292 10.4358L558.734 6.46023ZM550.828 5.87406C547.981 5.74469 545.135 5.68 542.289 5.68V9.68C545.074 9.68 547.86 9.74331 550.646 9.86993L550.828 5.87406ZM542.289 5.68C537.432 5.68 533.366 6.68827 530.337 8.96L532.737 12.16C534.828 10.5917 537.93 9.68 542.289 9.68V5.68ZM530.343 8.95507C527.34 11.188 525.4 14.7545 524.311 19.3114L528.202 20.2405C529.162 16.2215 530.741 13.644 532.73 12.1649L530.343 8.95507ZM524.306 19.3328C523.3 23.7628 522.817 29.5295 522.817 36.576H526.817C526.817 29.6705 527.294 24.2372 528.207 20.2192L524.306 19.3328ZM522.817 36.576C522.817 42.2588 523.074 47.0299 523.603 50.8653L527.566 50.3187C527.071 46.7301 526.817 42.1572 526.817 36.576H522.817ZM523.608 50.8987C524.206 54.7499 525.19 57.9652 526.645 60.438L530.093 58.41C528.987 56.5308 528.115 53.8581 527.561 50.2853L523.608 50.8987ZM526.645 60.438C528.124 62.9517 530.162 64.818 532.745 65.9578L534.36 62.2982C532.592 61.518 531.174 60.2483 530.093 58.41L526.645 60.438ZM532.81 65.985C535.361 67.0054 538.45 67.472 542.001 67.472V63.472C538.768 63.472 536.224 63.0426 534.296 62.271L532.81 65.985ZM542.001 67.472C545.18 67.472 548.441 67.0661 551.779 66.2648L550.846 62.3752C547.785 63.1099 544.838 63.472 542.001 63.472V67.472ZM551.779 66.2648C555.042 65.4817 557.86 64.6231 560.216 63.681L558.73 59.967C556.605 60.8169 553.983 61.6223 550.846 62.3752L551.779 66.2648ZM561.473 61.824V40.992H557.473V61.824H561.473ZM559.473 38.992H542.385V42.992H559.473V38.992ZM544.385 40.992V35.328H540.385V40.992H544.385ZM542.697 37.3035C543.841 37.1228 545.255 36.968 546.948 36.8425L546.653 32.8535C544.89 32.984 543.36 33.1492 542.073 33.3525L542.697 37.3035ZM546.948 36.8425C548.647 36.7167 550.444 36.6221 552.339 36.5589L552.206 32.5611C550.262 32.6259 548.411 32.7233 546.653 32.8535L546.948 36.8425ZM552.401 36.5559C554.343 36.4306 556.284 36.368 558.225 36.368V32.368C556.198 32.368 554.171 32.4334 552.144 32.5641L552.401 36.5559ZM558.225 36.368C559.863 36.368 561.402 36.3995 562.842 36.4621L563.016 32.4659C561.511 32.4005 559.914 32.368 558.225 32.368V36.368ZM562.929 36.464C564.32 36.464 565.478 36.5552 566.421 36.7216L567.116 32.7824C565.883 32.5648 564.481 32.464 562.929 32.464V36.464ZM564.769 34.752V72H568.769V34.752H564.769ZM566.769 70H561.201V74H566.769V70ZM563.15 71.5503L561.997 66.5583L558.1 67.4577L559.252 72.4497L563.15 71.5503ZM559.154 65.2191C556.96 66.3164 554.108 67.4671 550.574 68.666L551.859 72.454C555.494 71.2209 558.53 70.0036 560.943 68.7969L559.154 65.2191ZM550.564 68.6696C547.26 69.811 543.695 70.4193 539.857 70.4803L539.92 74.4798C544.147 74.4127 548.134 73.741 551.87 72.4504L550.564 68.6696ZM712.77 72.384L712.899 70.3882L712.868 70.3861L712.837 70.3851L712.77 72.384ZM706.818 72L707.005 70.0087L706.974 70.0058L706.943 70.0039L706.818 72ZM700.962 71.52L700.749 73.5086L700.757 73.5094L700.962 71.52ZM696.45 70.848H694.45V72.4708L696.038 72.8051L696.45 70.848ZM696.45 64.992L696.61 62.9984L694.45 62.8256V64.992H696.45ZM702.306 65.376L702.417 63.3791L702.306 65.376ZM709.698 65.664L709.65 67.6634L709.651 67.6634L709.698 65.664ZM725.346 64.896L725.832 66.8363L725.346 64.896ZM730.818 61.728L729.344 60.3765L729.329 60.3936L729.313 60.411L730.818 61.728ZM730.434 42.912L728.994 44.2993L729.007 44.3129L729.02 44.3262L730.434 42.912ZM701.058 36.48L699.824 38.0537L699.832 38.0595L699.839 38.0652L701.058 36.48ZM701.538 4.992L702.774 6.56464V6.56463L701.538 4.992ZM723.618 1.152L723.419 3.14207L723.444 3.14454L723.469 3.14639L723.618 1.152ZM731.01 1.92L730.743 3.90198L730.772 3.90593L730.801 3.90901L731.01 1.92ZM737.058 2.784H739.058V1.14439L737.451 0.822838L737.058 2.784ZM737.058 8.64L736.877 10.6318L739.058 10.8301V8.64H737.058ZM727.458 7.96799L727.35 9.96503L727.352 9.96513L727.458 7.96799ZM709.986 8.736L710.566 10.65L710.593 10.6421L710.619 10.6334L709.986 8.736ZM705.09 12.288L703.426 11.1786L703.421 11.186L703.417 11.1935L705.09 12.288ZM706.53 30.816L707.698 29.192L706.53 30.816ZM732.834 35.136L731.852 36.878L732.834 35.136ZM738.402 40.992L736.604 41.8679L736.609 41.8772L736.614 41.8864L738.402 40.992ZM737.154 65.856L735.593 64.6066L735.583 64.6187L735.574 64.6309L737.154 65.856ZM729.09 71.136L728.546 69.2116L728.536 69.2144L729.09 71.136ZM717.858 70.576C716.507 70.576 714.856 70.5144 712.899 70.3882L712.642 74.3799C714.653 74.5096 716.394 74.576 717.858 74.576V70.576ZM712.837 70.3851C710.96 70.3225 709.016 70.1973 707.005 70.0087L706.632 73.9913C708.717 74.1868 710.741 74.3175 712.704 74.3829L712.837 70.3851ZM706.943 70.0039C704.92 69.8774 702.995 69.7196 701.168 69.5306L700.757 73.5094C702.642 73.7044 704.621 73.8666 706.694 73.9961L706.943 70.0039ZM701.176 69.5314C699.423 69.3437 697.991 69.1284 696.862 68.8909L696.038 72.8051C697.342 73.0796 698.917 73.3123 700.749 73.5086L701.176 69.5314ZM698.45 70.848V64.992H694.45V70.848H698.45ZM696.291 66.9856C697.912 67.1153 699.882 67.2444 702.196 67.3729L702.417 63.3791C700.123 63.2516 698.188 63.1246 696.61 62.9984L696.291 66.9856ZM702.195 67.3729C704.523 67.5022 707.008 67.599 709.65 67.6634L709.747 63.6646C707.141 63.601 704.698 63.5058 702.417 63.3791L702.195 67.3729ZM709.651 67.6634C712.354 67.7278 714.994 67.76 717.57 67.76V63.76C715.027 63.76 712.419 63.7282 709.746 63.6646L709.651 67.6634ZM717.57 67.76C720.581 67.76 723.34 67.4593 725.832 66.8363L724.861 62.9557C722.745 63.4847 720.32 63.76 717.57 63.76V67.76ZM725.832 66.8363C728.465 66.178 730.669 64.9358 732.324 63.045L729.313 60.411C728.28 61.5922 726.836 62.462 724.861 62.9557L725.832 66.8363ZM732.293 63.0794C734.15 61.0537 734.93 58.2919 734.93 55.104H730.93C730.93 57.6761 730.303 59.3303 729.344 60.3765L732.293 63.0794ZM734.93 55.104V50.304H730.93V55.104H734.93ZM734.93 50.304C734.93 46.7186 734.013 43.6625 731.849 41.4978L729.02 44.3262C730.183 45.4895 730.93 47.3614 730.93 50.304H734.93ZM731.875 41.5247C729.671 39.2356 726.334 38.32 722.37 38.32V42.32C725.831 42.32 727.87 43.1324 728.994 44.2993L731.875 41.5247ZM722.37 38.32H714.786V42.32H722.37V38.32ZM714.786 38.32C709.236 38.32 705.143 37.0989 702.278 34.8948L699.839 38.0652C703.63 40.9811 708.689 42.32 714.786 42.32V38.32ZM702.293 34.9063C699.719 32.8877 698.162 29.2121 698.162 23.232H694.162C694.162 29.7959 695.87 34.9523 699.824 38.0537L702.293 34.9063ZM698.162 23.232V19.2H694.162V23.232H698.162ZM698.162 19.2C698.162 12.8641 699.864 8.85106 702.774 6.56464L700.303 3.41936C696.045 6.76493 694.162 12.2238 694.162 19.2H698.162ZM702.774 6.56463C705.882 4.12295 710.438 2.768 716.706 2.768V-1.232C709.919 -1.232 704.363 0.229046 700.303 3.41936L702.774 6.56463ZM716.706 2.768C718.674 2.768 720.91 2.89109 723.419 3.14207L723.818 -0.838078C721.207 -1.0991 718.835 -1.232 716.706 -1.232V2.768ZM723.469 3.14639C725.992 3.33565 728.417 3.58767 730.743 3.90198L731.278 -0.0619869C728.868 -0.387669 726.365 -0.647652 723.768 -0.842402L723.469 3.14639ZM730.801 3.90901C733.199 4.16139 735.148 4.44161 736.666 4.74516L737.451 0.822838C735.768 0.486385 733.686 0.190607 731.22 -0.0690136L730.801 3.90901ZM735.058 2.784V8.64H739.058V2.784H735.058ZM737.24 6.64821C734.393 6.38947 731.168 6.16385 727.565 5.97086L727.352 9.96513C730.917 10.1561 734.092 10.3785 736.877 10.6318L737.24 6.64821ZM727.567 5.97096C724.016 5.77723 720.651 5.68 717.474 5.68V9.68C720.57 9.68 723.861 9.77477 727.35 9.96503L727.567 5.97096ZM717.474 5.68C714.439 5.68 711.72 6.05004 709.354 6.83863L710.619 10.6334C712.477 10.014 714.75 9.68 717.474 9.68V5.68ZM709.406 6.82195C706.881 7.58732 704.852 9.03957 703.426 11.1786L706.755 13.3974C707.633 12.0804 708.868 11.1647 710.566 10.65L709.406 6.82195ZM703.417 11.1935C702.026 13.3206 701.458 16.1692 701.458 19.488H705.458C705.458 16.5348 705.979 14.5834 706.764 13.3825L703.417 11.1935ZM701.458 19.488V22.752H705.458V19.488H701.458ZM701.458 22.752C701.458 26.9362 702.554 30.4211 705.363 32.44L707.698 29.192C706.411 28.2669 705.458 26.3758 705.458 22.752H701.458ZM705.363 32.44C707.873 34.2437 711.187 35.024 715.074 35.024V31.024C711.666 31.024 709.284 30.3323 707.698 29.192L705.363 32.44ZM715.074 35.024H723.234V31.024H715.074V35.024ZM723.234 35.024C726.914 35.024 729.745 35.6894 731.852 36.878L733.817 33.394C730.932 31.7665 727.363 31.024 723.234 31.024V35.024ZM731.852 36.878C734.007 38.0935 735.572 39.7489 736.604 41.8679L740.2 40.1161C738.801 37.2431 736.654 34.9945 733.817 33.394L731.852 36.878ZM736.614 41.8864C737.668 43.9956 738.226 46.4958 738.226 49.44H742.226C742.226 45.9842 741.569 42.8524 740.191 40.0976L736.614 41.8864ZM738.226 49.44V54.912H742.226V49.44H738.226ZM738.226 54.912C738.226 59.3901 737.255 62.529 735.593 64.6066L738.716 67.1054C741.15 64.063 742.226 59.9059 742.226 54.912H738.226ZM735.574 64.6309C733.875 66.8228 731.565 68.3571 728.546 69.2116L729.635 73.0604C733.4 71.9949 736.466 70.0092 738.735 67.0811L735.574 64.6309ZM728.536 69.2144C725.42 70.1132 721.867 70.576 717.858 70.576V74.576C722.17 74.576 726.105 74.0788 729.645 73.0576L728.536 69.2144ZM811.95 71.328L811.44 73.2617L811.461 73.2673L811.482 73.2724L811.95 71.328ZM803.406 66.336L801.935 67.6909L801.945 67.7013L801.955 67.7115L803.406 66.336ZM798.318 55.584L796.369 56.0318L796.372 56.0443L796.375 56.0567L798.318 55.584ZM798.414 18.336L800.358 18.8087L800.359 18.8027L798.414 18.336ZM803.598 7.392L805.068 8.74855L805.077 8.7393L805.085 8.72993L803.598 7.392ZM812.142 2.20799L812.653 4.14167L812.67 4.13719L812.687 4.13241L812.142 2.20799ZM835.95 2.20799L835.406 4.13241L835.427 4.13843L835.449 4.14399L835.95 2.20799ZM844.494 7.392L842.989 8.70901L843.007 8.72902L843.025 8.74856L844.494 7.392ZM849.582 18.336L847.632 18.7781L847.633 18.7838L849.582 18.336ZM849.486 55.584L847.543 55.1113L847.54 55.1237L847.537 55.1362L849.486 55.584ZM844.398 66.336L842.947 64.9605L842.937 64.9707L842.927 64.981L844.398 66.336ZM835.95 71.328L836.427 73.2704L836.444 73.2662L836.461 73.2617L835.95 71.328ZM839.118 60.672L837.542 59.4407L837.537 59.4477L839.118 60.672ZM842.574 51.936L840.608 51.5694L842.574 51.936ZM842.478 21.408L840.51 21.7629L840.513 21.7785L840.516 21.794L842.478 21.408ZM839.022 12.576L837.441 13.8003L837.453 13.816L837.466 13.8315L839.022 12.576ZM832.974 8.64L832.465 10.5742L832.478 10.5773L832.974 8.64ZM815.214 8.64L814.718 6.70263L814.706 6.70585L815.214 8.64ZM809.07 12.576L807.538 11.2908L807.526 11.3055L807.514 11.3205L809.07 12.576ZM805.422 21.408L803.466 20.9911L803.463 21.0065L803.46 21.022L805.422 21.408ZM805.23 51.936L803.259 52.2702L803.261 52.2864L803.264 52.3026L805.23 51.936ZM808.59 60.672L806.99 61.872L807 61.8842L807.009 61.8963L808.59 60.672ZM814.638 64.704L814.096 66.6289L814.108 66.6324L814.638 64.704ZM823.95 70.576C819.523 70.576 815.686 70.1701 812.419 69.3836L811.482 73.2724C815.127 74.1499 819.29 74.576 823.95 74.576V70.576ZM812.461 69.3943C809.411 68.5886 806.894 67.1095 804.858 64.9605L801.955 67.7115C804.527 70.4265 807.706 72.2754 811.44 73.2617L812.461 69.3943ZM804.878 64.981C802.951 62.889 801.369 59.663 800.262 55.1113L796.375 56.0567C797.572 60.977 799.382 64.919 801.935 67.6909L804.878 64.981ZM800.268 55.1362C799.227 50.6063 798.686 44.5654 798.686 36.96H794.686C794.686 44.7146 795.234 51.0897 796.369 56.0318L800.268 55.1362ZM798.686 36.96C798.686 29.3593 799.259 23.3279 800.358 18.8087L796.471 17.8633C795.266 22.8161 794.686 29.2007 794.686 36.96H798.686ZM800.359 18.8027C801.465 14.1943 803.077 10.905 805.068 8.74855L802.129 6.03544C799.511 8.87096 797.668 12.8777 796.47 17.8693L800.359 18.8027ZM805.085 8.72993C807.124 6.4649 809.63 4.94024 812.653 4.14167L811.632 0.274319C807.871 1.26775 804.681 3.19909 802.112 6.05407L805.085 8.72993ZM812.687 4.13241C815.862 3.23397 819.607 2.768 823.95 2.768V-1.232C819.333 -1.232 815.207 -0.737978 811.598 0.283583L812.687 4.13241ZM823.95 2.768C828.427 2.768 832.236 3.2352 835.406 4.13241L836.495 0.283583C832.881 -0.73921 828.69 -1.232 823.95 -1.232V2.768ZM835.449 4.14399C838.536 4.94442 841.027 6.46691 842.989 8.70901L846 6.07499C843.481 3.19708 840.277 1.26357 836.452 0.272001L835.449 4.14399ZM843.025 8.74856C845.008 10.8969 846.589 14.1759 847.632 18.7781L851.533 17.8939C850.4 12.8961 848.589 8.87907 845.964 6.03544L843.025 8.74856ZM847.633 18.7838C848.674 23.3137 849.214 29.3546 849.214 36.96H853.214C853.214 29.2054 852.667 22.8303 851.532 17.8882L847.633 18.7838ZM849.214 36.96C849.214 44.5607 848.642 50.5921 847.543 55.1113L851.43 56.0567C852.635 51.1039 853.214 44.7193 853.214 36.96H849.214ZM847.537 55.1362C846.495 59.6714 844.918 62.8791 842.947 64.9605L845.85 67.7115C848.486 64.9289 850.302 60.9686 851.436 56.0318L847.537 55.1362ZM842.927 64.981C840.962 67.1151 838.487 68.5895 835.44 69.3943L836.461 73.2617C840.198 72.2745 843.355 70.4209 845.87 67.6909L842.927 64.981ZM835.474 69.3856C832.278 70.1694 828.446 70.576 823.95 70.576V74.576C828.671 74.576 832.839 74.1506 836.427 73.2704L835.474 69.3856ZM823.95 67.76C827.654 67.76 830.888 67.3976 833.613 66.6289L832.528 62.7791C830.261 63.4184 827.415 63.76 823.95 63.76V67.76ZM833.613 66.6289C836.507 65.8128 838.892 64.231 840.7 61.8963L837.537 59.4477C836.273 61.081 834.626 62.1872 832.528 62.7791L833.613 66.6289ZM840.695 61.9033C842.564 59.5106 843.804 56.2548 844.541 52.3026L840.608 51.5694C839.937 55.1692 838.873 57.7374 837.542 59.4407L840.695 61.9033ZM844.541 52.3026C845.277 48.3551 845.63 43.2258 845.63 36.96H841.63C841.63 43.1102 841.28 47.9649 840.608 51.5694L844.541 52.3026ZM845.63 36.96C845.63 30.4359 845.244 25.1068 844.441 21.022L840.516 21.794C841.248 25.5172 841.63 30.5561 841.63 36.96H845.63ZM844.447 21.0531C843.713 16.9859 842.475 13.6715 840.579 11.3205L837.466 13.8315C838.77 15.4485 839.836 18.0221 840.51 21.7629L844.447 21.0531ZM840.604 11.3517C838.788 9.0059 836.385 7.44991 833.471 6.70267L832.478 10.5773C834.555 11.1101 836.185 12.1781 837.441 13.8003L840.604 11.3517ZM833.483 6.70585C830.832 6.00797 827.64 5.68 823.95 5.68V9.68C827.429 9.68 830.253 9.99202 832.465 10.5741L833.483 6.70585ZM823.95 5.68C820.501 5.68 817.415 6.01102 814.718 6.70267L815.711 10.5773C818.006 9.98898 820.744 9.68 823.95 9.68V5.68ZM814.706 6.70585C811.861 7.4544 809.459 8.99987 807.538 11.2908L810.603 13.8612C812.009 12.1841 813.704 11.1056 815.723 10.5741L814.706 6.70585ZM807.514 11.3205C805.636 13.6487 804.33 16.9367 803.466 20.9911L807.379 21.8249C808.178 18.0713 809.305 15.4713 810.627 13.8315L807.514 11.3205ZM803.46 21.022C802.656 25.1068 802.27 30.4359 802.27 36.96H806.27C806.27 30.5561 806.652 25.5172 807.385 21.794L803.46 21.022ZM802.27 36.96C802.27 43.2203 802.592 48.3374 803.259 52.2702L807.202 51.6018C806.589 47.9826 806.27 43.1157 806.27 36.96H802.27ZM803.264 52.3026C803.999 56.2425 805.201 59.4859 806.99 61.872L810.19 59.472C808.908 57.7621 807.87 55.1815 807.197 51.5694L803.264 52.3026ZM807.009 61.8963C808.817 64.231 811.202 65.8128 814.096 66.6289L815.181 62.7791C813.083 62.1872 811.436 61.081 810.172 59.4477L807.009 61.8963ZM814.108 66.6324C816.892 67.3979 820.185 67.76 823.95 67.76V63.76C820.42 63.76 817.505 63.4181 815.169 62.7756L814.108 66.6324ZM922.883 71.328L922.372 73.2617L922.393 73.2673L922.415 73.2724L922.883 71.328ZM914.339 66.336L912.868 67.6909L912.877 67.7013L912.887 67.7115L914.339 66.336ZM909.251 55.584L907.302 56.0318L907.305 56.0443L907.308 56.0567L909.251 55.584ZM909.347 18.336L911.29 18.8087L911.292 18.8027L909.347 18.336ZM914.531 7.392L916.001 8.74855L916.009 8.7393L916.018 8.72993L914.531 7.392ZM923.075 2.20799L923.586 4.14167L923.603 4.13719L923.62 4.13241L923.075 2.20799ZM946.883 2.20799L946.338 4.13241L946.36 4.13843L946.381 4.14399L946.883 2.20799ZM955.427 7.392L953.922 8.70901L953.939 8.72902L953.957 8.74856L955.427 7.392ZM960.515 18.336L958.565 18.7781L958.566 18.7838L960.515 18.336ZM960.419 55.584L958.476 55.1113L958.473 55.1237L958.47 55.1362L960.419 55.584ZM955.331 66.336L953.879 64.9605L953.869 64.9707L953.86 64.981L955.331 66.336ZM946.883 71.328L947.359 73.2704L947.377 73.2662L947.394 73.2617L946.883 71.328ZM950.051 60.672L948.475 59.4407L948.47 59.4477L950.051 60.672ZM953.507 51.936L951.541 51.5694L953.507 51.936ZM953.411 21.408L951.443 21.7629L951.446 21.7785L951.449 21.794L953.411 21.408ZM949.955 12.576L948.374 13.8003L948.386 13.816L948.398 13.8315L949.955 12.576ZM943.907 8.64L943.398 10.5742L943.41 10.5773L943.907 8.64ZM926.147 8.64L925.65 6.70263L925.638 6.70585L926.147 8.64ZM920.003 12.576L918.471 11.2908L918.458 11.3055L918.446 11.3205L920.003 12.576ZM916.355 21.408L914.399 20.9911L914.396 21.0065L914.393 21.022L916.355 21.408ZM916.163 51.936L914.191 52.2702L914.194 52.2864L914.197 52.3026L916.163 51.936ZM919.523 60.672L917.923 61.872L917.932 61.8842L917.942 61.8963L919.523 60.672ZM925.571 64.704L925.028 66.6289L925.041 66.6324L925.571 64.704ZM934.883 70.576C930.455 70.576 926.618 70.1701 923.351 69.3836L922.415 73.2724C926.06 74.1499 930.223 74.576 934.883 74.576V70.576ZM923.394 69.3943C920.344 68.5886 917.827 67.1095 915.791 64.9605L912.887 67.7115C915.459 70.4265 918.639 72.2754 922.372 73.2617L923.394 69.3943ZM915.81 64.981C913.883 62.889 912.302 59.663 911.194 55.1113L907.308 56.0567C908.505 60.977 910.315 64.919 912.868 67.6909L915.81 64.981ZM911.2 55.1362C910.16 50.6063 909.619 44.5654 909.619 36.96H905.619C905.619 44.7146 906.166 51.0897 907.302 56.0318L911.2 55.1362ZM909.619 36.96C909.619 29.3593 910.191 23.3279 911.29 18.8087L907.404 17.8633C906.199 22.8161 905.619 29.2007 905.619 36.96H909.619ZM911.292 18.8027C912.398 14.1943 914.01 10.905 916.001 8.74855L913.061 6.03544C910.444 8.87096 908.6 12.8777 907.402 17.8693L911.292 18.8027ZM916.018 8.72993C918.056 6.4649 920.563 4.94024 923.586 4.14167L922.564 0.274319C918.803 1.26775 915.614 3.19909 913.044 6.05407L916.018 8.72993ZM923.62 4.13241C926.794 3.23397 930.54 2.768 934.883 2.768V-1.232C930.266 -1.232 926.14 -0.737978 922.53 0.283583L923.62 4.13241ZM934.883 2.768C939.36 2.768 943.168 3.2352 946.338 4.13241L947.428 0.283583C943.814 -0.73921 939.622 -1.232 934.883 -1.232V2.768ZM946.381 4.14399C949.469 4.94442 951.96 6.46691 953.922 8.70901L956.932 6.07499C954.414 3.19708 951.21 1.26357 947.385 0.272001L946.381 4.14399ZM953.957 8.74856C955.941 10.8969 957.521 14.1759 958.565 18.7781L962.466 17.8939C961.333 12.8961 959.522 8.87907 956.897 6.03544L953.957 8.74856ZM958.566 18.7838C959.606 23.3137 960.147 29.3546 960.147 36.96H964.147C964.147 29.2054 963.6 22.8303 962.464 17.8882L958.566 18.7838ZM960.147 36.96C960.147 44.5607 959.575 50.5921 958.476 55.1113L962.362 56.0567C963.567 51.1039 964.147 44.7193 964.147 36.96H960.147ZM958.47 55.1362C957.428 59.6714 955.851 62.8791 953.879 64.9605L956.783 67.7115C959.419 64.9289 961.234 60.9686 962.368 56.0318L958.47 55.1362ZM953.86 64.981C951.894 67.1151 949.419 68.5895 946.372 69.3943L947.394 73.2617C951.131 72.2745 954.288 70.4209 956.802 67.6909L953.86 64.981ZM946.407 69.3856C943.211 70.1694 939.378 70.576 934.883 70.576V74.576C939.604 74.576 943.771 74.1506 947.359 73.2704L946.407 69.3856ZM934.883 67.76C938.586 67.76 941.82 67.3976 944.546 66.6289L943.46 62.7791C941.194 63.4184 938.348 63.76 934.883 63.76V67.76ZM944.546 66.6289C947.439 65.8128 949.825 64.231 951.632 61.8963L948.47 59.4477C947.205 61.081 945.559 62.1872 943.46 62.7791L944.546 66.6289ZM951.627 61.9033C953.496 59.5106 954.736 56.2548 955.473 52.3026L951.541 51.5694C950.87 55.1692 949.806 57.7374 948.475 59.4407L951.627 61.9033ZM955.473 52.3026C956.209 48.3551 956.563 43.2258 956.563 36.96H952.563C952.563 43.1102 952.213 47.9649 951.541 51.5694L955.473 52.3026ZM956.563 36.96C956.563 30.4359 956.177 25.1068 955.373 21.022L951.449 21.794C952.181 25.5172 952.563 30.5561 952.563 36.96H956.563ZM955.379 21.0531C954.646 16.9859 953.408 13.6715 951.512 11.3205L948.398 13.8315C949.702 15.4485 950.768 18.0221 951.443 21.7629L955.379 21.0531ZM951.536 11.3517C949.72 9.0059 947.318 7.44991 944.404 6.70267L943.41 10.5773C945.488 11.1101 947.118 12.1781 948.374 13.8003L951.536 11.3517ZM944.416 6.70585C941.764 6.00797 938.573 5.68 934.883 5.68V9.68C938.362 9.68 941.186 9.99202 943.398 10.5741L944.416 6.70585ZM934.883 5.68C931.433 5.68 928.348 6.01102 925.65 6.70267L926.644 10.5773C928.938 9.98898 931.677 9.68 934.883 9.68V5.68ZM925.638 6.70585C922.794 7.4544 920.392 8.99987 918.471 11.2908L921.535 13.8612C922.942 12.1841 924.637 11.1056 926.656 10.5741L925.638 6.70585ZM918.446 11.3205C916.569 13.6487 915.263 16.9367 914.399 20.9911L918.311 21.8249C919.111 18.0713 920.237 15.4713 921.56 13.8315L918.446 11.3205ZM914.393 21.022C913.589 25.1068 913.203 30.4359 913.203 36.96H917.203C917.203 30.5561 917.585 25.5172 918.317 21.794L914.393 21.022ZM913.203 36.96C913.203 43.2203 913.525 48.3374 914.191 52.2702L918.135 51.6018C917.521 47.9826 917.203 43.1157 917.203 36.96H913.203ZM914.197 52.3026C914.931 56.2425 916.133 59.4859 917.923 61.872L921.123 59.472C919.841 57.7621 918.803 55.1815 918.129 51.5694L914.197 52.3026ZM917.942 61.8963C919.749 64.231 922.135 65.8128 925.028 66.6289L926.114 62.7791C924.015 62.1872 922.369 61.081 921.104 59.4477L917.942 61.8963ZM925.041 66.6324C927.824 67.3979 931.118 67.76 934.883 67.76V63.76C931.352 63.76 928.438 63.4181 926.101 62.7756L925.041 66.6324ZM1021.62 72H1019.62V74H1021.62V72ZM1021.62 1.34399V-0.656006H1019.62V1.34399H1021.62ZM1027.86 1.34399L1029.55 0.26461L1028.96 -0.656006H1027.86V1.34399ZM1064.73 58.848L1063.04 59.9274L1066.73 65.6736V58.848H1064.73ZM1064.73 1.34399V-0.656006H1062.73V1.34399H1064.73ZM1072.31 1.34399H1074.31V-0.656006H1072.31V1.34399ZM1072.31 72V74H1074.31V72H1072.31ZM1066.07 72L1064.39 73.0794L1064.98 74H1066.07V72ZM1029.21 14.496L1030.89 13.4166L1027.21 7.67039V14.496H1029.21ZM1029.21 72V74H1031.21V72H1029.21ZM1023.62 72V1.34399H1019.62V72H1023.62ZM1021.62 3.34399H1027.86V-0.656006H1021.62V3.34399ZM1026.18 2.42338L1063.04 59.9274L1066.41 57.7686L1029.55 0.26461L1026.18 2.42338ZM1066.73 58.848V1.34399H1062.73V58.848H1066.73ZM1064.73 3.34399H1072.31V-0.656006H1064.73V3.34399ZM1070.31 1.34399V72H1074.31V1.34399H1070.31ZM1072.31 70H1066.07V74H1072.31V70ZM1067.76 70.9206L1030.89 13.4166L1027.52 15.5754L1064.39 73.0794L1067.76 70.9206ZM1027.21 14.496V72H1031.21V14.496H1027.21ZM1029.21 70H1021.62V74H1029.21V70Z" fill="white"/>
</g>
<defs>
<filter id="filter0_d_237_2662" x="0.664062" y="0.768005" width="1075.65" height="79.808" filterUnits="userSpaceOnUse" color-interpolation-filters="sRGB">
<feFlood flood-opacity="0" result="BackgroundImageFix"/>
<feColorMatrix in="SourceAlpha" type="matrix" values="0 0 0 0 0 0 0 0 0 0 0 0 0 0 0 0 0 0 127 0" result="hardAlpha"/>
<feOffset dy="4"/>
<feGaussianBlur stdDeviation="2"/>
<feComposite in2="hardAlpha" operator="out"/>
<feColorMatrix type="matrix" values="0 0 0 0 0 0 0 0 0 0 0 0 0 0 0 0 0 0 0.25 0"/>
<feBlend mode="normal" in2="BackgroundImageFix" result="effect1_dropShadow_237_2662"/>
<feBlend mode="normal" in="SourceGraphic" in2="effect1_dropShadow_237_2662" result="shape"/>
</filter>
</defs>
</svg>
